<mxfile host="Electron" modified="2024-01-08T11:07:18.663Z" agent="Mozilla/5.0 (Macintosh; Intel Mac OS X 10_15_7) AppleWebKit/537.36 (KHTML, like Gecko) draw.io/22.0.0 Chrome/114.0.5735.289 Electron/25.8.3 Safari/537.36" etag="T0phfJqazUgU0Gke6TPf" version="22.0.0" type="device">
  <diagram name="Page-1" id="UeIFN5v3fpE7xjH6cNSb">
    <mxGraphModel dx="1865" dy="1251" grid="1" gridSize="10" guides="1" tooltips="1" connect="1" arrows="1" fold="1" page="1" pageScale="1" pageWidth="1654" pageHeight="1169" math="0" shadow="0">
      <root>
        <mxCell id="0" />
        <mxCell id="1" parent="0" />
        <mxCell id="N3p6yKIz0wenjXK1gF17-1" value="Сервис" style="rounded=1;whiteSpace=wrap;html=1;verticalAlign=top;fontSize=18;fillColor=#d5e8d4;strokeColor=#82b366;" vertex="1" parent="1">
          <mxGeometry x="642" y="440" width="340" height="280" as="geometry" />
        </mxCell>
        <mxCell id="N3p6yKIz0wenjXK1gF17-2" value="Управление задачами" style="rounded=1;whiteSpace=wrap;html=1;" vertex="1" parent="1">
          <mxGeometry x="672" y="510" width="120" height="60" as="geometry" />
        </mxCell>
        <mxCell id="N3p6yKIz0wenjXK1gF17-3" value="Контроль качества работы воркеров" style="rounded=1;whiteSpace=wrap;html=1;" vertex="1" parent="1">
          <mxGeometry x="832" y="510" width="120" height="60" as="geometry" />
        </mxCell>
        <mxCell id="N3p6yKIz0wenjXK1gF17-4" value="Сбор расходников под задачу" style="rounded=1;whiteSpace=wrap;html=1;" vertex="1" parent="1">
          <mxGeometry x="752" y="613" width="120" height="60" as="geometry" />
        </mxCell>
        <mxCell id="N3p6yKIz0wenjXK1gF17-5" value="Сервис" style="rounded=1;whiteSpace=wrap;html=1;verticalAlign=top;fontSize=18;fillColor=#d5e8d4;strokeColor=#82b366;" vertex="1" parent="1">
          <mxGeometry x="132" y="455" width="210" height="200" as="geometry" />
        </mxCell>
        <mxCell id="N3p6yKIz0wenjXK1gF17-20" style="edgeStyle=orthogonalEdgeStyle;curved=1;rounded=0;orthogonalLoop=1;jettySize=auto;html=1;entryX=0;entryY=0.75;entryDx=0;entryDy=0;" edge="1" parent="1" source="N3p6yKIz0wenjXK1gF17-6" target="N3p6yKIz0wenjXK1gF17-2">
          <mxGeometry relative="1" as="geometry" />
        </mxCell>
        <mxCell id="N3p6yKIz0wenjXK1gF17-28" value="Асинхронно" style="edgeLabel;html=1;align=center;verticalAlign=middle;resizable=0;points=[];" vertex="1" connectable="0" parent="N3p6yKIz0wenjXK1gF17-20">
          <mxGeometry x="-0.0018" y="2" relative="1" as="geometry">
            <mxPoint as="offset" />
          </mxGeometry>
        </mxCell>
        <mxCell id="N3p6yKIz0wenjXK1gF17-6" value="Тестирование и отбор кандидатов в воркеры" style="rounded=1;whiteSpace=wrap;html=1;" vertex="1" parent="1">
          <mxGeometry x="177" y="525" width="120" height="60" as="geometry" />
        </mxCell>
        <mxCell id="N3p6yKIz0wenjXK1gF17-7" value="Сервис" style="rounded=1;whiteSpace=wrap;html=1;verticalAlign=top;fontSize=18;fillColor=#d5e8d4;strokeColor=#82b366;" vertex="1" parent="1">
          <mxGeometry x="742" y="60" width="210" height="200" as="geometry" />
        </mxCell>
        <mxCell id="N3p6yKIz0wenjXK1gF17-8" value="Метчинг воркеров под клиентов" style="rounded=1;whiteSpace=wrap;html=1;" vertex="1" parent="1">
          <mxGeometry x="787" y="130" width="120" height="60" as="geometry" />
        </mxCell>
        <mxCell id="N3p6yKIz0wenjXK1gF17-9" value="Внешняя система" style="rounded=1;whiteSpace=wrap;html=1;verticalAlign=top;fontSize=18;fillColor=#f5f5f5;fontColor=#333333;strokeColor=#666666;" vertex="1" parent="1">
          <mxGeometry x="162" y="70" width="210" height="200" as="geometry" />
        </mxCell>
        <mxCell id="N3p6yKIz0wenjXK1gF17-19" style="edgeStyle=orthogonalEdgeStyle;curved=1;rounded=0;orthogonalLoop=1;jettySize=auto;html=1;entryX=0;entryY=0.25;entryDx=0;entryDy=0;" edge="1" parent="1" source="N3p6yKIz0wenjXK1gF17-10" target="N3p6yKIz0wenjXK1gF17-2">
          <mxGeometry relative="1" as="geometry" />
        </mxCell>
        <mxCell id="N3p6yKIz0wenjXK1gF17-26" value="Синхронно" style="edgeLabel;html=1;align=center;verticalAlign=middle;resizable=0;points=[];" vertex="1" connectable="0" parent="N3p6yKIz0wenjXK1gF17-19">
          <mxGeometry x="-0.0916" y="-3" relative="1" as="geometry">
            <mxPoint y="1" as="offset" />
          </mxGeometry>
        </mxCell>
        <mxCell id="N3p6yKIz0wenjXK1gF17-10" value="Happy Cat Box (авто-регистрация клиентов)" style="rounded=1;whiteSpace=wrap;html=1;" vertex="1" parent="1">
          <mxGeometry x="207" y="140" width="120" height="60" as="geometry" />
        </mxCell>
        <mxCell id="N3p6yKIz0wenjXK1gF17-11" value="Сервис" style="rounded=1;whiteSpace=wrap;html=1;verticalAlign=top;fontSize=18;fillColor=#d5e8d4;strokeColor=#82b366;" vertex="1" parent="1">
          <mxGeometry x="1312" y="280" width="210" height="200" as="geometry" />
        </mxCell>
        <mxCell id="N3p6yKIz0wenjXK1gF17-12" value="Расчет и списание с клиентов за задачи" style="rounded=1;whiteSpace=wrap;html=1;" vertex="1" parent="1">
          <mxGeometry x="1357" y="350" width="120" height="60" as="geometry" />
        </mxCell>
        <mxCell id="N3p6yKIz0wenjXK1gF17-13" value="Сервис" style="rounded=1;whiteSpace=wrap;html=1;verticalAlign=top;fontSize=18;fillColor=#d5e8d4;strokeColor=#82b366;" vertex="1" parent="1">
          <mxGeometry x="1312" y="670" width="210" height="200" as="geometry" />
        </mxCell>
        <mxCell id="N3p6yKIz0wenjXK1gF17-14" value="Расчет и начисление выплат воркерам" style="rounded=1;whiteSpace=wrap;html=1;" vertex="1" parent="1">
          <mxGeometry x="1357" y="740" width="120" height="60" as="geometry" />
        </mxCell>
        <mxCell id="N3p6yKIz0wenjXK1gF17-15" value="Внешняя система" style="rounded=1;whiteSpace=wrap;html=1;verticalAlign=top;fontSize=18;fillColor=#f5f5f5;fontColor=#333333;strokeColor=#666666;" vertex="1" parent="1">
          <mxGeometry x="872" y="890" width="210" height="180" as="geometry" />
        </mxCell>
        <mxCell id="N3p6yKIz0wenjXK1gF17-16" value="Производство и доставка печенья" style="rounded=1;whiteSpace=wrap;html=1;" vertex="1" parent="1">
          <mxGeometry x="917" y="960" width="120" height="60" as="geometry" />
        </mxCell>
        <mxCell id="N3p6yKIz0wenjXK1gF17-17" value="Сервис" style="rounded=1;whiteSpace=wrap;html=1;verticalAlign=top;fontSize=18;fillColor=#d5e8d4;strokeColor=#82b366;" vertex="1" parent="1">
          <mxGeometry x="222" y="780" width="210" height="200" as="geometry" />
        </mxCell>
        <mxCell id="N3p6yKIz0wenjXK1gF17-18" value="Мотивация менеджеров" style="rounded=1;whiteSpace=wrap;html=1;" vertex="1" parent="1">
          <mxGeometry x="267" y="850" width="120" height="60" as="geometry" />
        </mxCell>
        <mxCell id="N3p6yKIz0wenjXK1gF17-21" style="edgeStyle=orthogonalEdgeStyle;curved=1;rounded=0;orthogonalLoop=1;jettySize=auto;html=1;entryX=0;entryY=0.5;entryDx=0;entryDy=0;exitX=0.5;exitY=1;exitDx=0;exitDy=0;" edge="1" parent="1" source="N3p6yKIz0wenjXK1gF17-4" target="N3p6yKIz0wenjXK1gF17-16">
          <mxGeometry relative="1" as="geometry">
            <Array as="points">
              <mxPoint x="812" y="990" />
            </Array>
          </mxGeometry>
        </mxCell>
        <mxCell id="N3p6yKIz0wenjXK1gF17-30" value="Синхронно" style="edgeLabel;html=1;align=center;verticalAlign=middle;resizable=0;points=[];" vertex="1" connectable="0" parent="N3p6yKIz0wenjXK1gF17-21">
          <mxGeometry x="-0.1627" y="10" relative="1" as="geometry">
            <mxPoint as="offset" />
          </mxGeometry>
        </mxCell>
        <mxCell id="N3p6yKIz0wenjXK1gF17-22" style="edgeStyle=orthogonalEdgeStyle;curved=1;rounded=0;orthogonalLoop=1;jettySize=auto;html=1;entryX=1;entryY=0.5;entryDx=0;entryDy=0;exitX=0.25;exitY=1;exitDx=0;exitDy=0;" edge="1" parent="1" source="N3p6yKIz0wenjXK1gF17-2" target="N3p6yKIz0wenjXK1gF17-18">
          <mxGeometry relative="1" as="geometry" />
        </mxCell>
        <mxCell id="N3p6yKIz0wenjXK1gF17-29" value="Асинхронно" style="edgeLabel;html=1;align=center;verticalAlign=middle;resizable=0;points=[];" vertex="1" connectable="0" parent="N3p6yKIz0wenjXK1gF17-22">
          <mxGeometry x="0.2891" y="-59" relative="1" as="geometry">
            <mxPoint as="offset" />
          </mxGeometry>
        </mxCell>
        <mxCell id="N3p6yKIz0wenjXK1gF17-25" style="edgeStyle=orthogonalEdgeStyle;curved=1;rounded=0;orthogonalLoop=1;jettySize=auto;html=1;entryX=0.5;entryY=1;entryDx=0;entryDy=0;" edge="1" parent="1" source="N3p6yKIz0wenjXK1gF17-2" target="N3p6yKIz0wenjXK1gF17-8">
          <mxGeometry relative="1" as="geometry" />
        </mxCell>
        <mxCell id="N3p6yKIz0wenjXK1gF17-27" value="Синхронно" style="edgeLabel;html=1;align=center;verticalAlign=middle;resizable=0;points=[];" vertex="1" connectable="0" parent="N3p6yKIz0wenjXK1gF17-25">
          <mxGeometry x="0.1594" y="15" relative="1" as="geometry">
            <mxPoint as="offset" />
          </mxGeometry>
        </mxCell>
        <mxCell id="N3p6yKIz0wenjXK1gF17-23" value="Асинхронно" style="edgeStyle=orthogonalEdgeStyle;curved=1;rounded=0;orthogonalLoop=1;jettySize=auto;html=1;entryX=0;entryY=0.5;entryDx=0;entryDy=0;" edge="1" parent="1" source="N3p6yKIz0wenjXK1gF17-3" target="N3p6yKIz0wenjXK1gF17-12">
          <mxGeometry relative="1" as="geometry" />
        </mxCell>
        <mxCell id="N3p6yKIz0wenjXK1gF17-24" style="edgeStyle=orthogonalEdgeStyle;curved=1;rounded=0;orthogonalLoop=1;jettySize=auto;html=1;entryX=0;entryY=0.5;entryDx=0;entryDy=0;" edge="1" parent="1" source="N3p6yKIz0wenjXK1gF17-3" target="N3p6yKIz0wenjXK1gF17-14">
          <mxGeometry relative="1" as="geometry" />
        </mxCell>
        <mxCell id="N3p6yKIz0wenjXK1gF17-31" value="Асинхронно" style="edgeLabel;html=1;align=center;verticalAlign=middle;resizable=0;points=[];" vertex="1" connectable="0" parent="N3p6yKIz0wenjXK1gF17-24">
          <mxGeometry x="0.0462" relative="1" as="geometry">
            <mxPoint as="offset" />
          </mxGeometry>
        </mxCell>
        <mxCell id="N3p6yKIz0wenjXK1gF17-32" value="pipeline" style="whiteSpace=wrap;html=1;aspect=fixed;" vertex="1" parent="1">
          <mxGeometry x="930" y="30" width="80" height="80" as="geometry" />
        </mxCell>
        <mxCell id="N3p6yKIz0wenjXK1gF17-33" value="graph db" style="whiteSpace=wrap;html=1;aspect=fixed;" vertex="1" parent="1">
          <mxGeometry x="930" y="200" width="80" height="80" as="geometry" />
        </mxCell>
        <mxCell id="N3p6yKIz0wenjXK1gF17-34" value="layered" style="whiteSpace=wrap;html=1;aspect=fixed;" vertex="1" parent="1">
          <mxGeometry x="1487" y="240" width="80" height="80" as="geometry" />
        </mxCell>
        <mxCell id="N3p6yKIz0wenjXK1gF17-35" value="RDBMS" style="whiteSpace=wrap;html=1;aspect=fixed;" vertex="1" parent="1">
          <mxGeometry x="1487" y="440" width="80" height="80" as="geometry" />
        </mxCell>
        <mxCell id="N3p6yKIz0wenjXK1gF17-36" value="layered" style="whiteSpace=wrap;html=1;aspect=fixed;" vertex="1" parent="1">
          <mxGeometry x="1487" y="640" width="80" height="80" as="geometry" />
        </mxCell>
        <mxCell id="N3p6yKIz0wenjXK1gF17-37" value="RDBMS" style="whiteSpace=wrap;html=1;aspect=fixed;" vertex="1" parent="1">
          <mxGeometry x="1487" y="820" width="80" height="80" as="geometry" />
        </mxCell>
        <mxCell id="N3p6yKIz0wenjXK1gF17-38" value="layered" style="whiteSpace=wrap;html=1;aspect=fixed;" vertex="1" parent="1">
          <mxGeometry x="170" y="750" width="80" height="80" as="geometry" />
        </mxCell>
        <mxCell id="N3p6yKIz0wenjXK1gF17-39" value="RDBMS" style="whiteSpace=wrap;html=1;aspect=fixed;" vertex="1" parent="1">
          <mxGeometry x="170" y="930" width="80" height="80" as="geometry" />
        </mxCell>
        <mxCell id="N3p6yKIz0wenjXK1gF17-40" value="layered" style="whiteSpace=wrap;html=1;aspect=fixed;" vertex="1" parent="1">
          <mxGeometry x="90" y="430" width="80" height="80" as="geometry" />
        </mxCell>
        <mxCell id="N3p6yKIz0wenjXK1gF17-41" value="RDBMS" style="whiteSpace=wrap;html=1;aspect=fixed;" vertex="1" parent="1">
          <mxGeometry x="90" y="603" width="80" height="80" as="geometry" />
        </mxCell>
        <mxCell id="N3p6yKIz0wenjXK1gF17-42" value="modular with layers" style="whiteSpace=wrap;html=1;aspect=fixed;" vertex="1" parent="1">
          <mxGeometry x="957" y="420" width="80" height="80" as="geometry" />
        </mxCell>
        <mxCell id="N3p6yKIz0wenjXK1gF17-43" value="RDBMS" style="whiteSpace=wrap;html=1;aspect=fixed;" vertex="1" parent="1">
          <mxGeometry x="957" y="660" width="80" height="80" as="geometry" />
        </mxCell>
      </root>
    </mxGraphModel>
  </diagram>
</mxfile>
